<svg width="19" height="28" viewBox="0 0 19 28" fill="none" xmlns="http://www.w3.org/2000/svg">
<path d="M18.9804 8.52229C18.9804 13.0629 14.7315 16.7438 9.4902 16.7438C4.24891 16.7438 0 13.0629 0 8.52229C0 3.98167 4.24891 0.300781 9.4902 0.300781C14.7315 0.300781 18.9804 3.98167 18.9804 8.52229Z" fill="#00FF19"/>
<rect y="9.19141" width="18.9991" height="7.7964" fill="#00FF19"/>
<rect x="2.21484" y="11.0391" width="14.3924" height="9.96395" fill="#00FF19"/>
<rect x="5.53516" y="5.50391" width="7.74974" height="18.8208" fill="#00FF19"/>
<rect x="7.75" y="7.71875" width="3.32132" height="19.9279" fill="#00FF19"/>
<path d="M14.7692 9.91588C14.7692 12.9242 12.3304 15.363 9.3221 15.363C6.31375 15.363 3.875 12.9242 3.875 9.91588C3.875 6.90751 6.31375 4.46875 9.3221 4.46875C12.3304 4.46875 14.7692 6.90751 14.7692 9.91588Z" fill="black"/>
</svg>
